<?xml version="1.0" encoding="utf-8"?>
<svg viewBox="42.526 23.495 383.479 67.895" xmlns="http://www.w3.org/2000/svg">
  <ellipse style="fill: rgb(10, 112, 180);" transform="matrix(1, -0.000073, 0.000074, 1, -19.795514, -20.165263)" cx="96.263" cy="77.615" rx="33.945" ry="33.945"/>
  <ellipse style="fill: rgb(255, 255, 255);" transform="matrix(1, -0.000073, 0.000074, 1, -13.899029, -15.286618)" cx="90.301" cy="72.808" rx="31.844" ry="31.842"/>
  <ellipse style="fill: rgb(10, 112, 180);" transform="matrix(1, -0.000073, 0.000074, 1, -8.147078, -11.066179)" cx="84.542" cy="68.164" rx="29.811" ry="29.811"/>
  <path style="fill: rgb(255, 255, 255);" d="M 58.109 85.319 C 58.109 85.319 58.683 74.496 59.084 66.992 C 54.205 67.131 49.343 62.542 49.287 53.861 C 49.343 49.235 54.205 41.506 60.203 41.506 C 66.687 41.506 71.092 49.235 71.092 53.824 C 71.092 62.542 66.687 67.131 62.355 67.131 C 62.355 71.614 63.147 88.075 63.147 88.075 C 63.147 88.075 58.131 85.353 58.109 85.319 Z" transform="matrix(1, 0, 0, 1, 6.160808, -0.770062)"/>
  <path style="fill: rgb(255, 255, 255);" d="M 84.888 84.263 L 83.926 68.508 C 83.926 68.508 89.348 68.508 89.438 64.01 C 89.714 61.198 88.456 41.506 88.456 41.506 L 86.877 41.506 L 86.947 60.792 L 85.162 60.792 L 85.299 41.576 L 82.963 41.576 L 82.828 60.584 L 81.456 60.584 L 81.594 41.506 L 79.191 41.506 L 79.258 60.654 L 77.751 60.654 L 77.68 41.506 L 75.966 41.506 C 75.966 41.506 74.022 59.548 74.57 64.01 C 74.661 68.5 79.969 68.508 79.969 68.508 L 79.054 87.077 L 84.888 84.263 Z" transform="matrix(1, 0, 0, 1, 6.160808, -0.770062)"/>
  <path d="M 135.49 41.826 L 143.48 41.826 L 143.48 73.106 L 135.49 73.106 L 135.49 60.426 L 125.05 60.426 L 125.05 73.106 L 117.03 73.106 L 117.03 41.826 L 125.05 41.826 L 125.05 53.966 L 135.49 53.966 L 135.49 41.826 ZM 167.263 73.106 L 165.673 67.926 L 155.613 67.926 L 154.023 73.106 L 145.413 73.106 L 156.823 41.826 L 162.273 41.826 L 164.423 41.826 L 175.893 73.106 L 167.263 73.106 Z M 157.593 61.436 L 163.673 61.436 L 160.623 51.556 L 157.593 61.436 ZM 185.912 66.636 L 198.802 66.636 L 198.802 73.106 L 182.962 73.106 L 177.892 73.106 L 177.892 41.826 L 185.912 41.826 L 185.912 66.636 ZM 221.766 73.106 L 220.176 67.926 L 210.116 67.926 L 208.526 73.106 L 199.916 73.106 L 211.326 41.826 L 216.776 41.826 L 218.926 41.826 L 230.396 73.106 L 221.766 73.106 Z M 212.096 61.436 L 218.176 61.436 L 215.126 51.556 L 212.096 61.436 ZM 240.415 66.636 L 253.305 66.636 L 253.305 73.106 L 237.465 73.106 L 232.395 73.106 L 232.395 41.826 L 240.415 41.826 L 240.415 66.636 ZM 279.6 41.826 L 287.59 41.826 L 287.59 63.076 C 287.59 65.123 287.11 66.939 286.15 68.526 C 285.19 70.119 283.88 71.353 282.22 72.226 C 280.56 73.099 278.72 73.536 276.7 73.536 C 274.52 73.536 272.613 73.169 270.98 72.436 C 269.347 71.709 268.073 70.589 267.16 69.076 C 266.24 67.569 265.78 65.683 265.78 63.416 L 273.82 63.416 C 273.82 64.389 273.923 65.143 274.13 65.676 C 274.337 66.203 274.643 66.566 275.05 66.766 C 275.457 66.966 276.007 67.066 276.7 67.066 C 277.627 67.066 278.34 66.713 278.84 66.006 C 279.347 65.299 279.6 64.323 279.6 63.076 L 279.6 41.826 ZM 318.852 58.046 C 318.852 61.179 318.262 63.919 317.082 66.266 C 315.908 68.606 314.278 70.403 312.192 71.656 C 310.098 72.909 307.712 73.536 305.032 73.536 C 302.312 73.536 299.902 72.909 297.802 71.656 C 295.702 70.403 294.068 68.606 292.902 66.266 C 291.735 63.919 291.152 61.179 291.152 58.046 L 291.152 56.906 C 291.152 53.773 291.735 51.033 292.902 48.686 C 294.068 46.346 295.698 44.546 297.792 43.286 C 299.885 42.026 302.285 41.396 304.992 41.396 C 307.672 41.396 310.058 42.026 312.152 43.286 C 314.252 44.546 315.892 46.346 317.072 48.686 C 318.258 51.033 318.852 53.773 318.852 56.906 L 318.852 58.046 Z M 310.662 56.866 C 310.662 53.973 310.172 51.763 309.192 50.236 C 308.212 48.709 306.812 47.946 304.992 47.946 C 301.225 47.946 299.342 50.919 299.342 56.866 L 299.342 58.046 C 299.342 60.939 299.818 63.156 300.772 64.696 C 301.725 66.236 303.145 67.006 305.032 67.006 C 306.838 67.006 308.228 66.226 309.202 64.666 C 310.175 63.099 310.662 60.893 310.662 58.046 L 310.662 56.866 ZM 330.919 73.106 L 322.949 73.106 L 322.949 41.826 L 330.919 41.826 L 330.919 73.106 ZM 362.311 73.106 L 354.341 73.106 L 343.901 54.906 L 343.901 73.106 L 335.881 73.106 L 335.881 41.826 L 343.901 41.826 L 354.321 59.996 L 354.321 41.826 L 362.311 41.826 L 362.311 73.106 ZM 391.719 41.826 L 391.719 48.316 L 382.399 48.316 L 382.399 73.106 L 374.359 73.106 L 374.359 48.316 L 365.269 48.316 L 365.269 41.826 L 382.399 41.826 L 391.719 41.826 ZM 405.061 60.496 C 402.941 59.776 401.114 58.999 399.581 58.166 C 398.047 57.326 396.791 56.256 395.811 54.956 C 394.831 53.649 394.341 52.079 394.341 50.246 C 394.341 48.439 394.867 46.873 395.921 45.546 C 396.974 44.213 398.431 43.186 400.291 42.466 C 402.151 41.753 404.247 41.396 406.581 41.396 C 408.861 41.396 410.887 41.783 412.661 42.556 C 414.441 43.329 415.834 44.449 416.841 45.916 C 417.854 47.383 418.361 49.133 418.361 51.166 L 410.361 51.166 C 410.361 50.106 410.021 49.266 409.341 48.646 C 408.661 48.026 407.677 47.716 406.391 47.716 C 405.531 47.716 404.794 47.836 404.181 48.076 C 403.561 48.323 403.094 48.643 402.781 49.036 C 402.467 49.429 402.311 49.863 402.311 50.336 C 402.311 51.123 402.764 51.796 403.671 52.356 C 404.584 52.909 405.977 53.496 407.851 54.116 C 411.304 55.229 413.914 56.619 415.681 58.286 C 417.454 59.946 418.341 62.066 418.341 64.646 C 418.341 66.533 417.861 68.143 416.901 69.476 C 415.941 70.809 414.587 71.819 412.841 72.506 C 411.087 73.193 409.031 73.536 406.671 73.536 C 404.364 73.536 402.204 73.153 400.191 72.386 C 398.177 71.619 396.541 70.419 395.281 68.786 C 394.021 67.153 393.391 65.106 393.391 62.646 L 401.451 62.646 C 401.451 63.806 401.641 64.723 402.021 65.396 C 402.401 66.069 402.971 66.546 403.731 66.826 C 404.484 67.099 405.464 67.236 406.671 67.236 C 407.917 67.236 408.837 66.989 409.431 66.496 C 410.024 66.003 410.321 65.399 410.321 64.686 C 410.321 64.066 410.194 63.546 409.941 63.126 C 409.681 62.706 409.174 62.286 408.421 61.866 C 407.667 61.453 406.547 60.996 405.061 60.496 Z" transform="matrix(1, 0, 0, 1, 6.160808086395264, -0.7700620293617249)" style="fill: rgb(10, 112, 180); white-space: pre;"/>
</svg>